<svg width="295" height="69" viewBox="0 0 295 69" fill="none" xmlns="http://www.w3.org/2000/svg">
<path d="M35.8403 67.376V2.096H51.5603V67.376H35.8403Z" fill="#62E610" fill-opacity="0.4"/>
<path d="M58.8746 67.376V2.096H73.6346V14.936L72.4346 12.656C73.9546 8.736 76.4346 5.776 79.8746 3.776C83.3946 1.696 87.4746 0.655995 92.1146 0.655995C96.9146 0.655995 101.155 1.696 104.835 3.776C108.595 5.856 111.515 8.776 113.595 12.536C115.675 16.216 116.715 20.496 116.715 25.376V67.376H100.995V29.096C100.995 26.216 100.435 23.736 99.3146 21.656C98.1946 19.576 96.6346 17.976 94.6346 16.856C92.7146 15.656 90.4346 15.056 87.7946 15.056C85.2346 15.056 82.9546 15.656 80.9546 16.856C78.9546 17.976 77.3946 19.576 76.2746 21.656C75.1546 23.736 74.5946 26.216 74.5946 29.096V67.376H58.8746Z" fill="#62E610" fill-opacity="0.4"/>
<path d="M122.807 67.376V2.096H138.527V67.376H122.807Z" fill="#62E610" fill-opacity="0.4"/>
<path d="M176.802 68.816C170.082 68.816 164.202 67.296 159.162 64.256C154.122 61.216 150.202 57.096 147.402 51.896C144.602 46.696 143.202 40.936 143.202 34.616C143.202 28.056 144.602 22.256 147.402 17.216C150.282 12.096 154.162 8.056 159.042 5.09599C164.002 2.13599 169.522 0.655995 175.602 0.655995C180.722 0.655995 185.202 1.496 189.042 3.176C192.962 4.856 196.282 7.176 199.002 10.136C201.722 13.096 203.802 16.496 205.242 20.336C206.682 24.096 207.402 28.176 207.402 32.576C207.402 33.696 207.322 34.856 207.162 36.056C207.082 37.256 206.882 38.296 206.562 39.176H156.162V27.176H197.682L190.242 32.816C190.962 29.136 190.762 25.856 189.642 22.976C188.602 20.096 186.842 17.816 184.362 16.136C181.962 14.456 179.042 13.616 175.602 13.616C172.322 13.616 169.402 14.456 166.842 16.136C164.282 17.736 162.322 20.136 160.962 23.336C159.682 26.456 159.202 30.256 159.522 34.736C159.202 38.736 159.722 42.296 161.082 45.416C162.522 48.456 164.602 50.816 167.322 52.496C170.122 54.176 173.322 55.016 176.922 55.016C180.522 55.016 183.562 54.256 186.042 52.736C188.602 51.216 190.602 49.176 192.042 46.616L204.762 52.856C203.482 55.976 201.482 58.736 198.762 61.136C196.042 63.536 192.802 65.416 189.042 66.776C185.362 68.136 181.282 68.816 176.802 68.816Z" fill="#62E610"/>
<path d="M236.958 68.816C229.998 68.816 223.918 67.176 218.718 63.896C213.598 60.536 210.078 56.016 208.158 50.336L219.918 44.696C221.598 48.376 223.918 51.256 226.878 53.336C229.918 55.416 233.278 56.456 236.958 56.456C239.838 56.456 242.118 55.816 243.798 54.536C245.478 53.256 246.318 51.576 246.318 49.496C246.318 48.216 245.958 47.176 245.238 46.376C244.598 45.496 243.678 44.776 242.478 44.216C241.358 43.576 240.118 43.056 238.758 42.656L228.078 39.656C222.558 38.056 218.358 35.616 215.478 32.336C212.678 29.056 211.278 25.176 211.278 20.696C211.278 16.696 212.278 13.216 214.278 10.256C216.358 7.216 219.198 4.856 222.798 3.176C226.478 1.496 230.678 0.655995 235.398 0.655995C241.558 0.655995 246.998 2.13599 251.718 5.09599C256.438 8.056 259.798 12.216 261.798 17.576L249.798 23.216C248.678 20.256 246.798 17.896 244.158 16.136C241.518 14.376 238.558 13.496 235.278 13.496C232.638 13.496 230.558 14.096 229.038 15.296C227.518 16.496 226.758 18.056 226.758 19.976C226.758 21.176 227.078 22.216 227.718 23.096C228.358 23.976 229.238 24.696 230.358 25.256C231.558 25.816 232.918 26.336 234.438 26.816L244.878 29.936C250.238 31.536 254.358 33.936 257.238 37.136C260.198 40.336 261.678 44.256 261.678 48.896C261.678 52.816 260.638 56.296 258.558 59.336C256.478 62.296 253.598 64.616 249.918 66.296C246.238 67.976 241.918 68.816 236.958 68.816Z" fill="#62E610"/>
<path d="M23.2299 68.096C15.8699 68.096 10.1499 66.096 6.06995 62.096C2.06995 58.016 0.0699463 52.296 0.0699463 44.936V16.136L0.0699916 2.096H15.7899H30.7899V16.136H15.7899V44.096C15.7899 46.256 16.1499 48.096 16.8699 49.616C17.6699 51.136 18.8699 52.296 20.4699 53.096C22.1499 53.896 24.2699 54.296 26.8299 54.296C27.3899 54.296 28.0299 54.256 28.7499 54.176C29.5499 54.096 30.3099 54.016 31.0299 53.936V67.376C29.9099 67.536 28.6299 67.696 27.1899 67.856C25.7499 68.016 24.4299 68.096 23.2299 68.096Z" fill="#62E610"/>
<path d="M286.319 68.096C278.959 68.096 273.239 66.096 269.159 62.096C265.159 58.016 263.159 52.296 263.159 44.936L263.159 2.09602H278.879L293.879 2.096V16.136H278.879V44.096C278.879 46.256 279.239 48.096 279.959 49.616C280.759 51.136 281.959 52.296 283.559 53.096C285.239 53.896 287.359 54.296 289.919 54.296C290.479 54.296 291.119 54.256 291.839 54.176C292.639 54.096 293.399 54.016 294.119 53.936V67.376C292.999 67.536 291.719 67.696 290.279 67.856C288.839 68.016 287.519 68.096 286.319 68.096Z" fill="#62E610"/>
</svg>
